<svg width="156" height="156" viewBox="0 0 156 156" fill="none" xmlns="http://www.w3.org/2000/svg">
<path opacity="0.052" d="M78 156C121.078 156 156 121.078 156 78C156 34.9218 121.078 0 78 0C34.9218 0 0 34.9218 0 78C0 121.078 34.9218 156 78 156Z" fill="white"/>
<path opacity="0.051" d="M77.5 135.179C109.256 135.179 135 109.435 135 77.6791C135 45.9227 109.256 20.1791 77.5 20.1791C45.7436 20.1791 20 45.9227 20 77.6791C20 109.435 45.7436 135.179 77.5 135.179Z" fill="white"/>
<path d="M51.3333 99.45C54.6333 96.2111 58.4687 93.6591 62.8393 91.794C67.2076 89.9313 71.9278 89 77 89C82.0722 89 86.7937 89.9313 91.1643 91.794C95.5326 93.6591 99.3667 96.2111 102.667 99.45V52.3333H51.3333V99.45ZM77 81.6667C80.5444 81.6667 83.5694 80.4139 86.075 77.9083C88.5806 75.4028 89.8333 72.3778 89.8333 68.8333C89.8333 65.2889 88.5806 62.2639 86.075 59.7583C83.5694 57.2528 80.5444 56 77 56C73.4556 56 70.4306 57.2528 67.925 59.7583C65.4194 62.2639 64.1667 65.2889 64.1667 68.8333C64.1667 72.3778 65.4194 75.4028 67.925 77.9083C70.4306 80.4139 73.4556 81.6667 77 81.6667ZM51.3333 111C49.3167 111 47.5897 110.283 46.1523 108.848C44.7174 107.41 44 105.683 44 103.667V52.3333C44 50.3167 44.7174 48.5897 46.1523 47.1523C47.5897 45.7174 49.3167 45 51.3333 45H102.667C104.683 45 106.41 45.7174 107.848 47.1523C109.283 48.5897 110 50.3167 110 52.3333V103.667C110 105.683 109.283 107.41 107.848 108.848C106.41 110.283 104.683 111 102.667 111H51.3333ZM58.6667 103.667H95.3333V102.75C92.7667 100.611 89.925 99.0076 86.8083 97.9393C83.6917 96.8687 80.4222 96.3333 77 96.3333C73.5778 96.3333 70.3083 96.8687 67.1917 97.9393C64.075 99.0076 61.2333 100.611 58.6667 102.75V103.667ZM77 74.3333C75.4722 74.3333 74.1742 73.798 73.106 72.7273C72.0353 71.6591 71.5 70.3611 71.5 68.8333C71.5 67.3056 72.0353 66.0076 73.106 64.9393C74.1742 63.8687 75.4722 63.3333 77 63.3333C78.5278 63.3333 79.8258 63.8687 80.894 64.9393C81.9647 66.0076 82.5 67.3056 82.5 68.8333C82.5 70.3611 81.9647 71.6591 80.894 72.7273C79.8258 73.798 78.5278 74.3333 77 74.3333Z" fill="white"/>
<path d="M32.0859 83.2477C31.0344 82.0866 30.1571 80.7789 29.4813 79.3657C29.4673 79.3357 29.4476 79.3088 29.4232 79.2865C29.3988 79.2642 29.3703 79.2469 29.3392 79.2357C29.3081 79.2245 29.2751 79.2196 29.2421 79.2213C29.209 79.2229 29.1767 79.2311 29.1469 79.2453C29.117 79.2596 29.0903 79.2796 29.0683 79.3042C29.0462 79.3288 29.0293 79.3576 29.0184 79.3888C29.0075 79.42 29.003 79.453 29.005 79.486C29.007 79.519 29.0155 79.5513 29.03 79.581C29.7266 81.0378 30.6311 82.3859 31.7151 83.5829C32.0228 83.9235 32.3474 84.2631 32.6797 84.5923C32.703 84.6155 32.7307 84.634 32.7611 84.6465C32.7915 84.659 32.8241 84.6655 32.857 84.6654C32.8899 84.6653 32.9225 84.6587 32.9529 84.646C32.9832 84.6333 33.0108 84.6147 33.034 84.5913C33.0571 84.5679 33.0754 84.5402 33.0879 84.5097C33.1003 84.4793 33.1066 84.4466 33.1064 84.4137C33.1061 84.3808 33.0994 84.3483 33.0866 84.3179C33.0738 84.2876 33.0551 84.2602 33.0316 84.2371C32.7057 83.9144 32.3875 83.5813 32.0859 83.2477Z" fill="white"/>
<path d="M32.1936 70.0467C32.9982 69.6867 33.8697 69.5005 34.7513 69.5C36.0863 69.5 37.3857 69.9307 38.4563 70.7282C38.853 71.0214 39.2139 71.3602 39.5316 71.7375C39.5527 71.7629 39.5786 71.7838 39.6078 71.799C39.637 71.8143 39.6689 71.8237 39.7018 71.8266C39.7346 71.8295 39.7677 71.8259 39.7991 71.8159C39.8305 71.806 39.8597 71.79 39.8849 71.7687C39.9101 71.7475 39.9308 71.7215 39.9459 71.6922C39.961 71.6629 39.9702 71.6309 39.9729 71.5981C39.9756 71.5653 39.9718 71.5322 39.9617 71.5008C39.9516 71.4695 39.9354 71.4404 39.914 71.4153C39.571 71.0081 39.1814 70.6424 38.7532 70.326C37.9365 69.7189 36.9926 69.3054 35.9927 69.1166C34.9928 68.9278 33.9631 68.9687 32.9813 69.2362C32.6419 69.3284 32.3103 69.4468 31.9893 69.5903C31.9301 69.6183 31.8843 69.6683 31.8616 69.7297C31.8389 69.791 31.8412 69.8588 31.8679 69.9185C31.8946 69.9782 31.9437 70.0251 32.0046 70.049C32.0655 70.073 32.1333 70.0721 32.1936 70.0466V70.0467Z" fill="white"/>
<path d="M29.4678 71.9602C29.5202 72.0009 29.5865 72.019 29.6523 72.0107C29.7181 72.0024 29.7779 71.9682 29.8185 71.9158C30.2548 71.352 30.7848 70.8674 31.3853 70.4831C31.4411 70.4473 31.4805 70.3909 31.4947 70.3261C31.5089 70.2613 31.4968 70.1935 31.461 70.1377C31.4433 70.11 31.4204 70.0862 31.3934 70.0674C31.3665 70.0486 31.3361 70.0353 31.304 70.0283C31.2393 70.0141 31.1715 70.0262 31.1156 70.0619C30.4671 70.477 29.8946 71.0004 29.4234 71.6094C29.4033 71.6354 29.3884 71.665 29.3798 71.6967C29.3711 71.7284 29.3688 71.7614 29.3729 71.794C29.377 71.8266 29.3875 71.858 29.4038 71.8866C29.4201 71.9151 29.4418 71.9401 29.4678 71.9602Z" fill="white"/>
<path d="M29.4646 74.2165C29.4957 74.2271 29.5286 74.2315 29.5613 74.2294C29.5941 74.2274 29.6261 74.2188 29.6556 74.2044C29.6851 74.1899 29.7114 74.1698 29.7331 74.1451C29.7548 74.1205 29.7715 74.0918 29.7821 74.0608C30.1345 73.0225 30.8034 72.1207 31.6946 71.4821C32.5859 70.8434 33.6548 70.5 34.7512 70.5C37.0308 70.5 39.0933 72.0219 39.7671 74.2006C39.7689 74.2065 39.7709 74.2123 39.7733 74.2181C39.8408 74.3841 39.9199 74.545 40.0101 74.6998C40.0265 74.7283 40.0483 74.7533 40.0743 74.7733C40.1003 74.7934 40.13 74.8081 40.1617 74.8167C40.1933 74.8253 40.2264 74.8275 40.259 74.8233C40.2915 74.8191 40.323 74.8085 40.3514 74.7922C40.3799 74.7758 40.4049 74.7541 40.4249 74.7281C40.445 74.7021 40.4597 74.6724 40.4683 74.6407C40.4769 74.609 40.4791 74.5759 40.4749 74.5434C40.4707 74.5108 40.4601 74.4794 40.4438 74.4509C40.3674 74.3198 40.3 74.1837 40.2419 74.0434C39.5009 71.6623 37.2445 70 34.7512 70C33.5505 70 32.3799 70.3761 31.4038 71.0754C30.4277 71.7747 29.6951 72.7621 29.3089 73.8991C29.2875 73.9618 29.2918 74.0305 29.321 74.09C29.3502 74.1496 29.4019 74.1951 29.4646 74.2165Z" fill="white"/>
<path d="M32.8278 82.5772C30.5653 80.0737 29.8125 77.5976 29.6845 77.1267C29.4934 76.4282 29.4502 75.6976 29.5577 74.9815C29.5626 74.949 29.5612 74.9158 29.5533 74.8839C29.5454 74.8519 29.5313 74.8218 29.5118 74.7954C29.4923 74.7689 29.4677 74.7465 29.4395 74.7295C29.4113 74.7126 29.3801 74.7013 29.3475 74.6964C29.315 74.6916 29.2818 74.6932 29.2499 74.7012C29.2179 74.7092 29.1879 74.7234 29.1615 74.743C29.1351 74.7626 29.1128 74.7872 29.0959 74.8155C29.0791 74.8437 29.0679 74.875 29.0632 74.9076C28.9454 75.692 28.9927 76.4925 29.202 77.2576C29.3352 77.7479 30.1181 80.3245 32.4569 82.9126C32.575 83.0432 32.6963 83.1746 32.8177 83.303C32.8632 83.3512 32.9261 83.3794 32.9924 83.3813C33.0587 83.3831 33.123 83.3586 33.1713 83.313C33.2195 83.2675 33.2476 83.2046 33.2495 83.1383C33.2514 83.072 33.2268 83.0077 33.1813 82.9595C33.0623 82.8338 32.9435 82.7051 32.8278 82.5772Z" fill="white"/>
<path d="M34.8449 84.5622C34.5264 84.2827 34.2117 83.992 33.9094 83.6981C33.8618 83.6519 33.7979 83.6265 33.7316 83.6274C33.6653 83.6283 33.6021 83.6556 33.5558 83.7031C33.5096 83.7507 33.4842 83.8146 33.4851 83.8809C33.4861 83.9472 33.5133 84.0104 33.5608 84.0567C33.8692 84.3564 34.1902 84.6529 34.5151 84.9379C34.5397 84.9596 34.5684 84.9762 34.5995 84.9867C34.6306 84.9973 34.6635 85.0016 34.6962 84.9995C34.729 84.9973 34.761 84.9888 34.7905 84.9743C34.8199 84.9598 34.8462 84.9396 34.8679 84.9149C34.8895 84.8902 34.9061 84.8615 34.9167 84.8304C34.9272 84.7994 34.9316 84.7665 34.9294 84.7337C34.9273 84.701 34.9187 84.669 34.9042 84.6395C34.8897 84.6101 34.8696 84.5838 34.8449 84.5621V84.5622Z" fill="white"/>
<path d="M40.4331 76.074C40.3701 76.0071 40.3076 75.9392 40.2472 75.8724C39.6072 75.1643 39.3352 74.4751 39.2963 74.3709C39.1517 73.895 38.9325 73.445 38.6467 73.0379C38.628 73.0106 38.6041 72.9874 38.5763 72.9694C38.5486 72.9515 38.5176 72.9392 38.485 72.9333C38.4525 72.9274 38.4192 72.9281 38.3869 72.9351C38.3546 72.9422 38.3241 72.9557 38.297 72.9746C38.27 72.9936 38.2469 73.0177 38.2293 73.0457C38.2116 73.0736 38.1997 73.1047 38.1941 73.1373C38.1885 73.1699 38.1895 73.2032 38.1969 73.2354C38.2043 73.2676 38.2181 73.298 38.2373 73.3249C38.494 73.6906 38.6907 74.095 38.8199 74.5228C38.8213 74.5274 38.8228 74.532 38.8245 74.5366C38.8767 74.6791 39.1728 75.4292 39.8762 76.2076C39.9387 76.2769 40.0036 76.3472 40.0688 76.4165C40.1142 76.4648 40.177 76.4931 40.2432 76.4952C40.3095 76.4972 40.3739 76.4728 40.4222 76.4274C40.4705 76.382 40.4988 76.3193 40.5008 76.253C40.5029 76.1867 40.4785 76.1223 40.4331 76.074H40.4331Z" fill="white"/>
<path d="M33.6369 71.6488C34.327 71.4608 35.0536 71.4508 35.7486 71.6198C36.4436 71.7887 37.0845 72.131 37.6114 72.6148C37.6604 72.6594 37.7252 72.6827 37.7914 72.6796C37.8577 72.6764 37.92 72.6471 37.9646 72.598C38.0092 72.549 38.0325 72.4842 38.0293 72.418C38.0262 72.3517 37.9969 72.2895 37.9478 72.2448C37.3587 71.7045 36.6424 71.3223 35.8657 71.1336C35.0889 70.945 34.277 70.9563 33.5058 71.1663C30.9781 71.8528 29.4805 74.4678 30.1671 76.9955C30.2916 77.433 30.4462 77.8614 30.6296 78.2776C30.6559 78.3385 30.7053 78.3864 30.7669 78.4109C30.8285 78.4353 30.8973 78.4343 30.9582 78.408C31.0191 78.3817 31.067 78.3323 31.0915 78.2707C31.1159 78.2091 31.1149 78.1402 31.0886 78.0794C30.9145 77.685 30.7678 77.279 30.6495 76.8645C30.0353 74.6028 31.3754 72.2631 33.6369 71.6488Z" fill="white"/>
<path d="M36.2037 84.4025C35.2631 83.6392 34.3826 82.8048 33.5698 81.9067C32.7499 81.0019 32.0493 79.9958 31.4851 78.913C31.4701 78.8836 31.4494 78.8575 31.4243 78.8361C31.3992 78.8147 31.3701 78.7985 31.3386 78.7885C31.3072 78.7784 31.2741 78.7747 31.2413 78.7774C31.2084 78.7802 31.1764 78.7895 31.1471 78.8047C31.1179 78.8199 31.0919 78.8407 31.0707 78.866C31.0495 78.8913 31.0336 78.9205 31.0237 78.952C31.0139 78.9835 31.0104 79.0166 31.0134 79.0494C31.0164 79.0823 31.0259 79.1142 31.0413 79.1434C31.6252 80.2641 32.3503 81.3054 33.1988 82.2419C34.0288 83.1591 34.928 84.0112 35.8885 84.7906C35.94 84.8324 36.006 84.8521 36.0719 84.8452C36.1379 84.8384 36.1984 84.8056 36.2402 84.7541C36.282 84.7026 36.3016 84.6367 36.2948 84.5707C36.2879 84.5048 36.2551 84.4442 36.2037 84.4024V84.4025Z" fill="white"/>
<path d="M37.8721 74.843C37.9087 74.9488 38.2551 75.9053 39.1343 76.8781C39.4103 77.1836 39.7076 77.4872 40.0179 77.7805C40.066 77.8261 40.1304 77.8506 40.1966 77.8487C40.2295 77.8478 40.2618 77.8404 40.2917 77.827C40.3217 77.8136 40.3487 77.7944 40.3713 77.7706C40.3938 77.7467 40.4115 77.7187 40.4232 77.688C40.4349 77.6573 40.4404 77.6246 40.4395 77.5918C40.4386 77.559 40.4312 77.5267 40.4178 77.4967C40.4044 77.4667 40.3852 77.4397 40.3614 77.4172C40.0606 77.1328 39.7726 76.8387 39.5051 76.5428C38.7051 75.6577 38.3878 74.803 38.3463 74.6847C38.1136 73.9112 37.6387 73.2328 36.9915 72.7495C36.3443 72.2662 35.559 72.0035 34.7513 72C34.6849 72 34.6214 72.0264 34.5745 72.0733C34.5276 72.1202 34.5013 72.1837 34.5013 72.25C34.5013 72.3164 34.5276 72.3799 34.5745 72.4268C34.6214 72.4737 34.6849 72.5 34.7513 72.5C35.4522 72.5031 36.1337 72.7313 36.695 73.1512C37.2563 73.5711 37.6677 74.1603 37.8685 74.8319C37.8696 74.8356 37.8708 74.8393 37.8721 74.843Z" fill="white"/>
<path d="M32.8914 80.2626C32.9104 80.2894 32.9344 80.3122 32.9622 80.3297C32.99 80.3472 33.0209 80.359 33.0533 80.3645C33.0857 80.3701 33.1188 80.3692 33.1508 80.3619C33.1828 80.3546 33.2131 80.3411 33.2399 80.3222C33.2667 80.3032 33.2895 80.2791 33.307 80.2513C33.3245 80.2236 33.3363 80.1926 33.3419 80.1603C33.3474 80.1279 33.3465 80.0948 33.3392 80.0627C33.332 80.0307 33.3185 80.0005 33.2995 79.9737C32.112 78.2962 31.6876 76.871 31.6146 76.6024C31.3959 75.7931 31.4978 74.9307 31.8992 74.1948C32.3006 73.4589 32.9705 72.9063 33.7693 72.652C33.8325 72.632 33.8852 72.5878 33.9158 72.5289C33.9464 72.4701 33.9523 72.4015 33.9323 72.3383C33.9123 72.2751 33.868 72.2224 33.8092 72.1918C33.7504 72.1612 33.6818 72.1553 33.6186 72.1753C32.6967 72.4684 31.9236 73.106 31.4604 73.9552C30.9971 74.8044 30.8795 75.7997 31.1321 76.7334C31.2401 77.1308 31.6861 78.56 32.8914 80.2626Z" fill="white"/>
<path d="M37.3059 84.0001C36.2272 83.1702 35.2251 82.2452 34.3117 81.2362C34.1667 81.0758 34.0237 80.9098 33.8867 80.7432C33.8659 80.7176 33.8403 80.6964 33.8113 80.6807C33.7823 80.6651 33.7505 80.6554 33.7178 80.652C33.685 80.6487 33.6519 80.652 33.6203 80.6615C33.5888 80.671 33.5595 80.6867 33.534 80.7076C33.5085 80.7285 33.4875 80.7542 33.472 80.7833C33.4565 80.8124 33.4469 80.8443 33.4438 80.8771C33.4407 80.9098 33.4441 80.9429 33.4538 80.9744C33.4635 81.0059 33.4793 81.0352 33.5003 81.0605C33.6422 81.2333 33.7903 81.4052 33.9406 81.5715C34.8745 82.603 35.899 83.5486 37.0019 84.397C37.0279 84.4176 37.0578 84.4328 37.0897 84.4418C37.1217 84.4508 37.1551 84.4533 37.188 84.4492C37.221 84.4452 37.2528 84.4346 37.2816 84.4181C37.3104 84.4016 37.3356 84.3795 37.3558 84.3532C37.376 84.3268 37.3907 84.2967 37.3992 84.2646C37.4076 84.2325 37.4095 84.199 37.4049 84.1662C37.4002 84.1333 37.3891 84.1017 37.3721 84.0732C37.3551 84.0447 37.3326 84.0198 37.3059 84.0001Z" fill="white"/>
<path d="M40.3884 78.7828C39.8125 78.2963 39.2696 77.772 38.7634 77.2133C38.5835 77.0142 38.4147 76.8055 38.2575 76.5881C38.2185 76.5346 38.16 76.4988 38.0946 76.4884C38.0293 76.478 37.9626 76.494 37.909 76.5327C37.8554 76.5715 37.8193 76.6299 37.8087 76.6951C37.798 76.7604 37.8137 76.8272 37.8522 76.881C38.0201 77.1131 38.2004 77.336 38.3924 77.5486C38.9136 78.1238 39.4725 78.6636 40.0655 79.1645C40.1161 79.207 40.1815 79.2276 40.2474 79.222C40.3132 79.2163 40.3742 79.1848 40.4169 79.1344C40.4596 79.0839 40.4805 79.0186 40.4752 78.9527C40.4699 78.8868 40.4387 78.8258 40.3884 78.7828H40.3884Z" fill="white"/>
<path d="M34.1612 73.5789C34.7315 73.4238 35.34 73.4994 35.855 73.7894C36.3701 74.0794 36.7503 74.5605 36.9134 75.1286C36.9141 75.1312 36.9149 75.1338 36.9158 75.1364C36.9357 75.1981 37.0479 75.5297 37.303 76.0049C37.3185 76.0339 37.3396 76.0595 37.365 76.0802C37.3904 76.101 37.4197 76.1166 37.4511 76.1261C37.4826 76.1356 37.5155 76.1388 37.5482 76.1355C37.5809 76.1322 37.6126 76.1225 37.6415 76.107C37.6705 76.0915 37.6961 76.0704 37.7168 76.045C37.7376 76.0196 37.7532 75.9903 37.7627 75.9589C37.7722 75.9274 37.7754 75.8944 37.7721 75.8618C37.7688 75.8291 37.7591 75.7974 37.7436 75.7685C37.6053 75.5178 37.488 75.2562 37.3928 74.9863C37.1916 74.289 36.7229 73.6995 36.0888 73.3464C35.4548 72.9932 34.7069 72.905 34.0081 73.1009C33.3094 73.2969 32.7164 73.7611 32.3584 74.3924C32.0004 75.0237 31.9065 75.7709 32.0972 76.4712C32.199 76.8457 32.8019 78.8197 34.6827 80.901C35.0851 81.3462 35.5133 81.7825 35.9554 82.1976C36.0037 82.243 36.0681 82.2674 36.1344 82.2653C36.2007 82.2632 36.2634 82.2349 36.3088 82.1865C36.3542 82.1382 36.3785 82.0738 36.3764 82.0075C36.3743 81.9413 36.346 81.8785 36.2977 81.8331C35.8654 81.4273 35.4469 81.0009 35.0537 80.5657C33.2491 78.5688 32.6761 76.6953 32.5796 76.34C32.4239 75.7642 32.503 75.1501 32.7995 74.6324C33.096 74.1148 33.5857 73.7359 34.1612 73.5789Z" fill="white"/>
<path d="M38.217 83.4347C37.8299 83.151 37.4358 82.8378 37.0453 82.5036C36.9948 82.4616 36.9298 82.4411 36.8643 82.4467C36.7988 82.4522 36.7381 82.4833 36.6954 82.5333C36.6527 82.5832 36.6314 82.6479 36.636 82.7135C36.6407 82.779 36.671 82.8401 36.7203 82.8835C37.1203 83.2258 37.5244 83.5469 37.9215 83.838C37.975 83.8767 38.0417 83.8928 38.107 83.8825C38.1723 83.8723 38.2308 83.8366 38.2699 83.7833C38.309 83.73 38.3253 83.6634 38.3154 83.5981C38.3055 83.5328 38.2702 83.474 38.2171 83.4347H38.217Z" fill="white"/>
<path d="M40.2907 79.9914C39.4748 79.3558 38.7155 78.6506 38.0214 77.8838C36.8481 76.5855 36.4584 75.3507 36.4351 75.2744C36.3095 74.829 36.0126 74.4515 35.6094 74.2244C35.2061 73.9974 34.7294 73.9393 34.2834 74.0629C33.8375 74.1864 33.4586 74.4816 33.2297 74.8838C33.0009 75.286 32.9406 75.7625 33.0622 76.209C33.0711 76.2419 33.0911 76.3121 33.1243 76.4139C33.1452 76.4766 33.19 76.5285 33.2491 76.5583C33.3081 76.588 33.3765 76.5932 33.4393 76.5726C33.5021 76.5521 33.5542 76.5075 33.5842 76.4486C33.6143 76.3898 33.6198 76.3214 33.5996 76.2585C33.5697 76.1673 33.5524 76.1062 33.5447 76.0779C33.4575 75.7587 33.5004 75.4179 33.664 75.1303C33.8277 74.8427 34.0987 74.6317 34.4177 74.5435C34.7366 74.4554 35.0775 74.4974 35.3656 74.6603C35.6537 74.8231 35.8654 75.0935 35.9544 75.4123C35.9549 75.4138 35.9553 75.4154 35.9558 75.4169C35.9729 75.4738 36.3904 76.8248 37.6504 78.2191C38.3643 79.0076 39.1451 79.7328 39.9842 80.3865C40.0101 80.4067 40.0398 80.4215 40.0714 80.4302C40.1031 80.4388 40.1362 80.4412 40.1688 80.437C40.2013 80.4329 40.2328 80.4224 40.2613 80.4062C40.2898 80.3899 40.3149 80.3682 40.335 80.3422C40.3551 80.3163 40.3699 80.2866 40.3786 80.255C40.3873 80.2233 40.3896 80.1902 40.3855 80.1577C40.3814 80.1251 40.3709 80.0937 40.3546 80.0651C40.3383 80.0366 40.3166 80.0116 40.2907 79.9914Z" fill="white"/>
<path d="M38.9673 82.7443C38.3419 82.299 37.0981 81.3366 35.7954 79.8953C35.0531 79.0782 34.4352 78.1562 33.9614 77.1591C33.9477 77.1291 33.9281 77.1021 33.9039 77.0797C33.8797 77.0573 33.8513 77.04 33.8203 77.0286C33.7893 77.0172 33.7564 77.0121 33.7234 77.0135C33.6905 77.015 33.6581 77.0229 33.6282 77.0369C33.5983 77.0509 33.5715 77.0706 33.5493 77.095C33.5271 77.1194 33.5099 77.148 33.4988 77.179C33.4877 77.2101 33.4828 77.2431 33.4845 77.276C33.4862 77.309 33.4944 77.3413 33.5086 77.371C34.0034 78.413 34.649 79.3765 35.4245 80.2304C36.7589 81.7069 38.0351 82.6944 38.6772 83.1516C38.7312 83.19 38.7983 83.2054 38.8637 83.1944C38.929 83.1835 38.9874 83.1469 39.0258 83.0929C39.0643 83.0389 39.0797 82.9718 39.0687 82.9064C39.0577 82.841 39.0212 82.7827 38.9672 82.7442L38.9673 82.7443Z" fill="white"/>
<path d="M39.5694 81.9463C38.9769 81.5273 37.7952 80.6165 36.5375 79.2248C34.9802 77.5015 34.5281 75.8837 34.5097 75.8157C34.4923 75.7518 34.501 75.6835 34.5339 75.6259C34.5669 75.5684 34.6213 75.5263 34.6853 75.5089C34.7493 75.4915 34.8176 75.5002 34.8751 75.5331C34.9327 75.5661 34.9748 75.6205 34.9922 75.6845C34.9965 75.7001 35.4414 77.2661 36.9085 78.8894C37.0332 79.0274 37.1626 79.1664 37.2932 79.3024C37.3159 79.3264 37.343 79.3456 37.3732 79.3591C37.4033 79.3725 37.4358 79.3798 37.4688 79.3806C37.5018 79.3814 37.5346 79.3757 37.5654 79.3637C37.5961 79.3518 37.6242 79.3339 37.648 79.311C37.6718 79.2882 37.6909 79.2608 37.7041 79.2306C37.7173 79.2003 37.7243 79.1678 37.7249 79.1348C37.7254 79.1018 37.7194 79.069 37.7072 79.0384C37.6951 79.0077 37.6769 78.9798 37.6539 78.9561C37.5268 78.8237 37.4008 78.6885 37.2794 78.5542C35.9044 77.0326 35.478 75.5651 35.4743 75.5518C35.4483 75.4568 35.4039 75.3678 35.3436 75.2899C35.2832 75.2121 35.2082 75.1469 35.1226 75.098C35.0371 75.0492 34.9428 75.0177 34.8451 75.0053C34.7473 74.9929 34.6482 74.9999 34.5531 75.0258C34.4581 75.0518 34.3691 75.0962 34.2913 75.1565C34.2134 75.2168 34.1482 75.2919 34.0994 75.3774C34.0506 75.463 34.019 75.5573 34.0066 75.655C33.9943 75.7527 34.0012 75.8519 34.0272 75.9469C34.0469 76.0197 34.53 77.7492 36.1665 79.5601C37.4565 80.9875 38.6713 81.9237 39.2806 82.3546C39.3074 82.374 39.3378 82.3878 39.3699 82.3953C39.4021 82.4029 39.4355 82.404 39.468 82.3986C39.5006 82.3931 39.5318 82.3813 39.5598 82.3638C39.5878 82.3462 39.612 82.3233 39.6311 82.2963C39.6502 82.2693 39.6637 82.2389 39.671 82.2066C39.6782 82.1744 39.679 82.141 39.6732 82.1085C39.6675 82.076 39.6553 82.0449 39.6375 82.0171C39.6197 81.9892 39.5965 81.9652 39.5694 81.9464V81.9463Z" fill="white"/>
<path d="M40.0245 81.0438C39.8816 80.9398 39.7316 80.8261 39.5787 80.7055C39.1721 80.3851 38.7644 80.0337 38.367 79.6609C38.3431 79.6382 38.315 79.6203 38.2842 79.6085C38.2534 79.5966 38.2205 79.591 38.1875 79.5919C38.1545 79.5929 38.122 79.6003 38.0919 79.6138C38.0618 79.6274 38.0347 79.6467 38.0121 79.6708C37.9895 79.6949 37.9719 79.7232 37.9604 79.7541C37.9488 79.785 37.9434 79.8179 37.9446 79.8509C37.9458 79.8839 37.9535 79.9163 37.9673 79.9463C37.9811 79.9763 38.0007 80.0032 38.025 80.0256C38.4328 80.4081 38.8514 80.769 39.2692 81.0983C39.4271 81.2227 39.5823 81.3404 39.7303 81.4483C39.7569 81.4679 39.787 81.4822 39.8191 81.4901C39.8511 81.4981 39.8844 81.4996 39.9171 81.4946C39.9497 81.4896 39.9811 81.4782 40.0093 81.461C40.0375 81.4438 40.062 81.4213 40.0815 81.3945C40.1009 81.3678 40.1148 81.3375 40.1225 81.3054C40.1301 81.2733 40.1313 81.24 40.126 81.2074C40.1208 81.1748 40.109 81.1435 40.0916 81.1155C40.0742 81.0874 40.0513 81.0631 40.0245 81.0439V81.0438Z" fill="white"/>
<rect x="19.5" y="62.5" width="30" height="30" rx="3.5" stroke="white"/>
<path d="M115.524 85C115.105 85 114.746 84.8509 114.448 84.5528C114.149 84.2541 114 83.8952 114 83.4762V75.8571C114 75.4381 114.149 75.0792 114.448 74.7806C114.746 74.4824 115.105 74.3333 115.524 74.3333H116.286V72.8095C116.286 71.7556 116.657 70.857 117.4 70.1139C118.143 69.3713 119.041 69 120.095 69C121.149 69 122.048 69.3713 122.791 70.1139C123.533 70.857 123.905 71.7556 123.905 72.8095V74.3333H124.667C125.086 74.3333 125.445 74.4824 125.743 74.7806C126.041 75.0792 126.19 75.4381 126.19 75.8571V83.4762C126.19 83.8952 126.041 84.2541 125.743 84.5528C125.445 84.8509 125.086 85 124.667 85H115.524ZM115.524 83.4762H124.667V75.8571H115.524V83.4762ZM120.095 81.1905C120.514 81.1905 120.873 81.0414 121.172 80.7432C121.47 80.4446 121.619 80.0857 121.619 79.6667C121.619 79.2476 121.47 78.8888 121.172 78.5901C120.873 78.2919 120.514 78.1429 120.095 78.1429C119.676 78.1429 119.318 78.2919 119.019 78.5901C118.721 78.8888 118.571 79.2476 118.571 79.6667C118.571 80.0857 118.721 80.4446 119.019 80.7432C119.318 81.0414 119.676 81.1905 120.095 81.1905ZM117.81 74.3333H122.381V72.8095C122.381 72.1746 122.159 71.6349 121.714 71.1905C121.27 70.746 120.73 70.5238 120.095 70.5238C119.46 70.5238 118.921 70.746 118.476 71.1905C118.032 71.6349 117.81 72.1746 117.81 72.8095V74.3333Z" fill="white"/>
<rect x="105.5" y="62.5" width="30" height="30" rx="3.5" stroke="white"/>
</svg>
